<svg width="25" height="24" viewBox="0 0 25 24" fill="none" xmlns="http://www.w3.org/2000/svg">
<path fill-rule="evenodd" clip-rule="evenodd" d="M4.84286 0H20.1571C21.4486 0 22.5 1.104 22.5 2.472V24L20.0429 21.72L18.66 20.376L17.1971 18.948L17.8029 21.168H4.84286C3.55143 21.168 2.5 20.064 2.5 18.696V2.472C2.5 1.104 3.55143 0 4.84286 0ZM14.9914 14.7C15.3343 15.156 15.7457 15.672 15.7457 15.672C18.2714 15.588 19.2429 13.848 19.2429 13.848C19.2429 9.984 17.5971 6.852 17.5971 6.852C15.9514 5.556 14.3857 5.592 14.3857 5.592L14.2257 5.784C16.1686 6.408 17.0714 7.308 17.0714 7.308C15.8829 6.624 14.7171 6.288 13.6314 6.156C12.8086 6.06 12.02 6.084 11.3229 6.18C11.263 6.18 11.2118 6.18915 11.1542 6.19945C11.1458 6.20095 11.1373 6.20248 11.1286 6.204C10.7286 6.24 9.75714 6.396 8.53429 6.96C8.11143 7.164 7.86 7.308 7.86 7.308C7.86 7.308 8.80857 6.36 10.8657 5.736L10.7514 5.592C10.7514 5.592 9.18571 5.556 7.54 6.852C7.54 6.852 5.89429 9.984 5.89429 13.848C5.89429 13.848 6.85429 15.588 9.38 15.672C9.38 15.672 9.80286 15.132 10.1457 14.676C8.69429 14.22 8.14571 13.26 8.14571 13.26C8.14571 13.26 8.26 13.344 8.46571 13.464C8.47714 13.476 8.48857 13.488 8.51143 13.5C8.52857 13.512 8.54571 13.521 8.56286 13.53C8.58 13.539 8.59714 13.548 8.61429 13.56C8.9 13.728 9.18571 13.86 9.44857 13.968C9.91714 14.16 10.4771 14.352 11.1286 14.484C11.9857 14.652 12.9914 14.712 14.0886 14.496C14.6257 14.4 15.1743 14.232 15.7457 13.98C16.1457 13.824 16.5914 13.596 17.06 13.272C17.06 13.272 16.4886 14.256 14.9914 14.7ZM9.26592 11.4001C9.26592 10.6681 9.7802 10.0681 10.4316 10.0681C11.0831 10.0681 11.6088 10.6681 11.5973 11.4001C11.5973 12.1321 11.0831 12.7321 10.4316 12.7321C9.79163 12.7321 9.26592 12.1321 9.26592 11.4001ZM13.4373 11.4001C13.4373 10.6681 13.9516 10.0681 14.6031 10.0681C15.2545 10.0681 15.7688 10.6681 15.7688 11.4001C15.7688 12.1321 15.2545 12.7321 14.6031 12.7321C13.9631 12.7321 13.4373 12.1321 13.4373 11.4001Z" fill="white"/>
</svg>
