<svg width="19" height="14" viewBox="0 0 19 14" fill="none" xmlns="http://www.w3.org/2000/svg">
<path d="M16.0948 1.16264C14.8649 0.6195 13.5498 0.224765 12.175 0C12.0061 0.288141 11.8088 0.675698 11.6728 0.983997C10.2113 0.776538 8.76323 0.776538 7.32858 0.983997C7.1926 0.675698 6.99086 0.288141 6.82049 0C5.44414 0.224765 4.12756 0.62095 2.89765 1.16552C0.416925 4.70382 -0.255559 8.15424 0.080684 11.5557C1.72603 12.7154 3.32057 13.4199 4.88821 13.8809C5.27526 13.3781 5.62046 12.8436 5.91785 12.2803C5.35147 12.0772 4.809 11.8265 4.29643 11.5355C4.43242 11.4404 4.56543 11.341 4.69393 11.2387C7.82024 12.6189 11.217 12.6189 14.306 11.2387C14.436 11.341 14.569 11.4404 14.7035 11.5355C14.1894 11.828 13.6455 12.0786 13.0791 12.2818C13.3765 12.8436 13.7202 13.3796 14.1087 13.8824C15.6779 13.4213 17.2739 12.7169 18.9192 11.5557C19.3138 7.61255 18.2453 4.19382 16.0948 1.16264ZM6.34376 9.46382C5.40528 9.46382 4.63565 8.63686 4.63565 7.62983C4.63565 6.6228 5.38884 5.79442 6.34376 5.79442C7.29871 5.79442 8.06832 6.62135 8.05188 7.62983C8.05337 8.63686 7.29871 9.46382 6.34376 9.46382ZM12.6562 9.46382C11.7177 9.46382 10.9481 8.63686 10.9481 7.62983C10.9481 6.6228 11.7012 5.79442 12.6562 5.79442C13.6111 5.79442 14.3807 6.62135 14.3643 7.62983C14.3643 8.63686 13.6111 9.46382 12.6562 9.46382Z" fill="#005EBE"/>
</svg>
