<svg width="85" height="81" viewBox="0 0 85 81" fill="none" xmlns="http://www.w3.org/2000/svg">
<mask id="mask0_3383_8227" style="mask-type:alpha" maskUnits="userSpaceOnUse" x="5" y="10" width="66" height="57">
<path d="M30.6158 52.8028C21.687 56.8109 11.2143 52.7887 7.22442 43.819C3.23448 34.8491 7.23822 24.3282 16.167 20.3198C25.0957 16.3115 35.5684 20.3337 39.5584 29.3036C43.5483 38.2735 39.5446 48.7944 30.6158 52.8028Z" fill="black"/>
<path d="M62.78 34.5061C56.5983 37.2811 49.3481 34.4966 46.5859 28.2867C43.8236 22.0767 46.5954 14.793 52.7767 12.018C58.9584 9.24301 66.2087 12.0276 68.9709 18.2375C71.7332 24.4474 68.9612 31.7312 62.78 34.5061Z" fill="black"/>
<path d="M58.4455 65.1392C53.466 67.3745 47.6253 65.1314 45.4002 60.1294C43.175 55.1269 45.4078 49.2593 50.3875 47.0239C55.3671 44.7885 61.2073 47.0316 63.4328 52.0343C65.6579 57.0363 63.4251 62.9039 58.4455 65.1392Z" fill="black"/>
</mask>
<g mask="url(#mask0_3383_8227)">
<path d="M-1.76761 60.054C8.8978 84.0315 36.8921 94.783 60.7595 84.0686C84.6265 73.3536 95.3287 45.2306 84.6634 21.2534C73.9981 -2.72384 46.0038 -13.4754 22.1365 -2.76084C-1.73078 7.9537 -12.433 36.077 -1.76761 60.054Z" fill="#005EBE"/>
<path d="M23.2105 47.8071C27.891 58.3297 40.1762 63.0477 50.6503 58.3458C61.1247 53.6434 65.8211 41.3018 61.1407 30.7795C56.4599 20.2571 44.1749 15.5388 33.7008 20.2408C23.2266 24.9429 18.53 37.2847 23.2105 47.8071Z" fill="url(#paint0_linear_3383_8227)"/>
</g>
<defs>
<linearGradient id="paint0_linear_3383_8227" x1="5.28842" y1="40.454" x2="40.4979" y2="77.6054" gradientUnits="userSpaceOnUse">
<stop offset="0.0677083" stop-color="#78D3E2"/>
<stop offset="1" stop-color="#005EBE" stop-opacity="0.9"/>
</linearGradient>
</defs>
</svg>
