<svg width="21" height="20" viewBox="0 0 21 20" fill="none" xmlns="http://www.w3.org/2000/svg">
<mask id="mask0_1770_3184" style="mask-type:alpha" maskUnits="userSpaceOnUse" x="2" y="2" width="16" height="15">
<path d="M8.19163 13.0366C6.09075 14.0262 3.62658 13.0331 2.68778 10.8183C1.74897 8.60356 2.69103 6.0058 4.79191 5.01609C6.8928 4.02638 9.35696 5.01951 10.2958 7.23429C11.2346 9.44909 10.2925 12.0468 8.19163 13.0366Z" fill="black"/>
<path d="M15.7593 8.51914C14.3048 9.20432 12.5989 8.51678 11.949 6.98347C11.299 5.45014 11.9512 3.65169 13.4056 2.96651C14.8601 2.28133 16.5661 2.96889 17.216 4.5022C17.866 6.03551 17.2137 7.83396 15.7593 8.51914Z" fill="black"/>
<path d="M14.74 16.0831C13.5683 16.6351 12.1941 16.0812 11.6705 14.8462C11.147 13.611 11.6723 12.1622 12.844 11.6102C14.0157 11.0583 15.3898 11.6121 15.9135 12.8474C16.437 14.0824 15.9117 15.5312 14.74 16.0831Z" fill="black"/>
</mask>
<g mask="url(#mask0_1770_3184)">
<path d="M0.572373 14.8284C3.08188 20.7487 9.66877 23.4034 15.2846 20.7578C20.9004 18.1123 23.4186 11.1683 20.9091 5.24797C18.3996 -0.672327 11.8127 -3.32703 6.19687 -0.681463C0.581039 1.9641 -1.93713 8.90811 0.572373 14.8284Z" fill="#1568CA"/>
<path d="M6.44921 11.8042C7.5505 14.4023 10.4411 15.5673 12.9056 14.4063C15.3701 13.2453 16.4752 10.1979 15.374 7.59982C14.2727 5.0017 11.382 3.83669 8.91751 4.99769C6.45301 6.15869 5.34791 9.20606 6.44921 11.8042Z" fill="#8FD8E7"/>
</g>
</svg>
