<svg width="30" height="30" viewBox="0 0 30 30" fill="none" xmlns="http://www.w3.org/2000/svg">
<circle cx="15" cy="15" r="15" fill="#D1ECF1"/>
<rect x="8" y="9" width="13" height="13" fill="#005EBE"/>
<rect width="20" height="20" transform="translate(5 6)" fill="#D1ECF1"/>
<mask id="mask0_6_1616" style="mask-type:alpha" maskUnits="userSpaceOnUse" x="6" y="8" width="16" height="15">
<path d="M12.2034 19.0368C10.1025 20.0265 7.6383 19.0333 6.6995 16.8186C5.76069 14.6038 6.70275 12.006 8.80363 11.0163C10.9045 10.0266 13.3687 11.0198 14.3075 13.2345C15.2463 15.4493 14.3042 18.0471 12.2034 19.0368Z" fill="black"/>
<path d="M19.7716 14.5195C18.317 15.2047 16.6111 14.5171 15.9612 12.9838C15.3112 11.4505 15.9634 9.65206 17.4178 8.96688C18.8724 8.2817 20.5783 8.96925 21.2282 10.5026C21.8782 12.0359 21.226 13.8343 19.7716 14.5195Z" fill="black"/>
<path d="M18.7512 22.0835C17.5796 22.6354 16.2053 22.0816 15.6818 20.8465C15.1582 19.6113 15.6836 18.1626 16.8552 17.6106C18.0269 17.0586 19.4011 17.6125 19.9247 18.8477C20.4483 20.0828 19.9229 21.5316 18.7512 22.0835Z" fill="black"/>
</mask>
<g mask="url(#mask0_6_1616)">
<path d="M4.58409 20.829C7.0936 26.7493 13.6805 29.404 19.2963 26.7585C24.9122 24.1129 27.4303 17.1689 24.9208 11.2486C22.4113 5.32828 15.8244 2.67358 10.2086 5.31915C4.59275 7.96471 2.07458 14.9087 4.58409 20.829Z" fill="#1568CA"/>
<path d="M10.4609 17.8044C11.5622 20.4025 14.4529 21.5676 16.9174 20.4065C19.3819 19.2455 20.487 16.1982 19.3857 13.6001C18.2844 11.0019 15.3937 9.83693 12.9292 10.9979C10.4647 12.1589 9.35963 15.2063 10.4609 17.8044Z" fill="#8FD8E7"/>
</g>
</svg>
