<svg width="20" height="17" viewBox="0 0 20 17" fill="none" xmlns="http://www.w3.org/2000/svg">
<path d="M19.4103 2.39289C19.3117 2.4217 19.2131 2.44851 19.1145 2.47349C18.5118 2.62568 18.4564 2.42486 18.8928 1.98181C19.0882 1.78328 19.2609 1.56734 19.4108 1.33412C19.7469 0.811132 19.4554 0.583058 18.8835 0.827354C18.6796 0.9145 18.4722 0.993517 18.262 1.06396C17.6728 1.26183 16.8367 0.963352 16.3116 0.630365C15.6488 0.210048 14.8956 0 14.0516 0C12.8694 0 11.8617 0.416933 11.0281 1.25014C10.1946 2.08378 9.77771 3.09172 9.77771 4.27361C9.77771 4.43525 9.78694 4.59936 9.80518 4.76574C9.83513 5.03656 9.37902 5.23288 8.76351 5.14596C7.43208 4.95798 6.16708 4.55455 4.96826 3.9361C3.77933 3.32284 2.73001 2.55111 1.82047 1.62087C1.3857 1.17627 0.797671 1.21456 0.635334 1.81473C0.538072 2.17449 0.489698 2.54865 0.489698 2.93725C0.489698 3.66959 0.661673 4.3488 1.0057 4.9749C1.17679 5.28648 1.37716 5.56856 1.60726 5.82094C1.99429 6.24579 1.93506 6.49229 1.39633 6.34125C0.857817 6.1902 0.463176 5.96595 0.463176 5.9806C0.463176 5.99524 0.463176 6.00716 0.463176 6.00716C0.463176 7.03893 0.787151 7.94552 1.43551 8.72605C1.83489 9.20691 2.29887 9.57838 2.82727 9.84C3.38447 10.116 3.64403 10.27 3.33245 10.3103C3.14448 10.3346 2.95536 10.3467 2.76514 10.3467C2.63639 10.3467 2.50131 10.3409 2.36038 10.329C2.13749 10.3101 2.09743 10.7745 2.43535 11.2964C2.70393 11.711 3.04769 12.076 3.46646 12.3912C3.89241 12.712 4.35146 12.9423 4.84289 13.0825C5.44085 13.253 5.56084 13.5634 5.0277 13.8831C3.70844 14.6747 2.24848 15.0705 0.648026 15.0705C0.4677 15.0705 0.295689 15.0664 0.131365 15.0585C-0.153874 15.0448 0.0374871 15.296 0.588138 15.5844C2.30881 16.4856 4.1722 16.9359 6.17859 16.9359C7.69554 16.9359 9.12015 16.6957 10.4523 16.215C11.7839 15.7344 12.9219 15.0902 13.8657 14.2832C14.8094 13.4761 15.6233 12.5479 16.307 11.4981C16.9905 10.4483 17.4997 9.35233 17.8352 8.21027C18.1702 7.06795 18.3379 5.92339 18.3379 4.77659C18.3379 4.67326 18.337 4.58048 18.3354 4.49878C18.3323 4.34524 18.7384 3.92963 19.1918 3.50438C19.3965 3.31236 19.5916 3.11085 19.7781 2.89947C20.1893 2.43273 20.0072 2.21886 19.4103 2.39289Z" fill="#005EBE"/>
</svg>
