<svg width="161" height="53" viewBox="0 0 161 53" fill="none" xmlns="http://www.w3.org/2000/svg">
<mask id="mask0" mask-type="alpha" maskUnits="userSpaceOnUse" x="3" y="7" width="44" height="37">
<path d="M20.1483 34.4499C14.2723 37.0757 7.38017 34.4409 4.75438 28.5648C2.1286 22.6888 4.76347 15.7967 10.6395 13.1709C16.5156 10.5451 23.4076 13.18 26.0334 19.056C28.6592 24.932 26.0244 31.8241 20.1483 34.4499Z" fill="black"/>
<path d="M41.3156 22.4646C37.2475 24.2825 32.4761 22.4583 30.6582 18.3903C28.8404 14.3223 30.6645 9.55083 34.7326 7.73298C38.8006 5.91513 43.572 7.73926 45.3899 11.8073C47.2077 15.8753 45.3836 20.6468 41.3156 22.4646Z" fill="black"/>
<path d="M38.463 42.5315C35.186 43.9959 31.3423 42.5264 29.878 39.2494C28.4136 35.9724 29.883 32.1287 33.16 30.6643C36.4371 29.1999 40.2807 30.6694 41.7451 33.9464C43.2095 37.2234 41.74 41.0671 38.463 42.5315Z" fill="black"/>
</mask>
<g mask="url(#mask0)">
<circle cx="27.2771" cy="26.4914" r="31.1507" transform="rotate(65.9219 27.2771 26.4914)" fill="#1568CA"/>
<circle cx="27.7559" cy="25.6002" r="13.6704" transform="rotate(65.9219 27.7559 25.6002)" fill="#8FD8E7"/>
</g>
</svg>
